<svg width="55" height="54" viewBox="0 0 55 54" fill="none" xmlns="http://www.w3.org/2000/svg">
<path d="M27.4997 17.5208C22.2645 17.5208 18.0205 21.7647 18.0205 26.9999C18.0205 32.2351 22.2645 36.4791 27.4997 36.4791C32.7349 36.4791 36.9788 32.2351 36.9788 26.9999C36.9788 21.7647 32.7349 17.5208 27.4997 17.5208Z" fill="url(#paint0_linear_169_166)"/>
<path fill-rule="evenodd" clip-rule="evenodd" d="M12.2442 0.987546C22.3012 -0.136474 32.6983 -0.136474 42.7553 0.987546C48.2923 1.60639 52.7582 5.96907 53.4081 11.5255C54.6106 21.8067 54.6106 32.1931 53.4081 42.4744C52.7582 48.0308 48.2923 52.3935 42.7553 53.0123C32.6982 54.1363 22.3012 54.1363 12.2442 53.0123C6.70717 52.3935 2.24119 48.0308 1.59132 42.4744C0.388831 32.1931 0.388831 21.8067 1.59132 11.5255C2.24119 5.96907 6.70717 1.60639 12.2442 0.987546ZM42.083 9.49993C40.4722 9.49993 39.1663 10.8058 39.1663 12.4166C39.1663 14.0274 40.4722 15.3333 42.083 15.3333C43.6938 15.3333 44.9997 14.0274 44.9997 12.4166C44.9997 10.8058 43.6938 9.49993 42.083 9.49993ZM13.6455 26.9999C13.6455 19.3485 19.8482 13.1458 27.4997 13.1458C35.1511 13.1458 41.3538 19.3485 41.3538 26.9999C41.3538 34.6514 35.1511 40.8541 27.4997 40.8541C19.8482 40.8541 13.6455 34.6514 13.6455 26.9999Z" fill="url(#paint1_linear_169_166)"/>
<defs>
<linearGradient id="paint0_linear_169_166" x1="0.499512" y1="18.5" x2="54.4995" y2="54" gradientUnits="userSpaceOnUse">
<stop stop-color="#9208FC"/>
<stop offset="0.185417" stop-color="#FC02CA"/>
<stop offset="0.3625" stop-color="#FF0F47"/>
<stop offset="0.669792" stop-color="#FFA028"/>
<stop offset="0.966667" stop-color="#FFDB1C"/>
</linearGradient>
<linearGradient id="paint1_linear_169_166" x1="0.499512" y1="18.5" x2="54.4995" y2="54" gradientUnits="userSpaceOnUse">
<stop stop-color="#9208FC"/>
<stop offset="0.185417" stop-color="#FC02CA"/>
<stop offset="0.3625" stop-color="#FF0F47"/>
<stop offset="0.669792" stop-color="#FFA028"/>
<stop offset="0.966667" stop-color="#FFDB1C"/>
</linearGradient>
</defs>
</svg>
