<svg width="57" height="34" viewBox="0 0 57 34" fill="none" xmlns="http://www.w3.org/2000/svg">
<path d="M54.2385 33.7818H48.0594C45.7216 33.7818 45.0186 31.8887 40.8258 27.6959C37.1666 24.168 35.6208 23.7275 34.6933 23.7275C33.4143 23.7275 33.0628 24.0791 33.0628 25.8451V31.4016C33.0628 32.9051 32.5757 33.786 28.6498 33.786C24.8396 33.53 21.1448 32.3724 17.8696 30.4086C14.5945 28.4449 11.8327 25.7311 9.81181 22.4909C5.0141 16.5193 1.67585 9.51071 0.0625 2.0224C0.0625 1.0949 0.414017 0.256341 2.18007 0.256341H8.35492C9.9431 0.256341 10.5148 0.963611 11.1374 2.59414C14.1359 11.4202 19.252 19.0943 21.3272 19.0943C22.1234 19.0943 22.4707 18.7428 22.4707 16.7565V7.66785C22.2081 3.52164 20.0058 3.17012 20.0058 1.67088C20.0341 1.27544 20.2153 0.906571 20.511 0.642497C20.8067 0.378423 21.1937 0.239912 21.5898 0.256341H31.2967C32.6223 0.256341 33.0628 0.917025 33.0628 2.50521V14.7702C33.0628 16.0958 33.6345 16.5363 34.0326 16.5363C34.8288 16.5363 35.4429 16.0958 36.8998 14.6389C40.029 10.8228 42.5857 6.57127 44.4892 2.01816C44.6838 1.47125 45.052 1.00301 45.5375 0.684906C46.0231 0.366798 46.5994 0.216288 47.1785 0.256341H53.3576C55.2084 0.256341 55.6022 1.18384 55.2084 2.50521C52.9616 7.53839 50.1816 12.3161 46.916 16.7565C46.251 17.7729 45.9842 18.3023 46.916 19.4924C47.5301 20.4199 49.6942 22.2283 51.1511 23.9478C53.2683 26.0596 55.0264 28.503 56.3561 31.1814C56.8855 32.9009 56.0003 33.7818 54.2385 33.7818Z" fill="#5379FF"/>
</svg>
