<svg width="24" height="24" viewBox="0 0 24 24" fill="none" xmlns="http://www.w3.org/2000/svg">
<path fill-rule="evenodd" clip-rule="evenodd" d="M0.120596 23.3871C0.0220009 23.7463 0.347958 24.078 0.707126 23.9838L6.25928 22.5279C8.01187 23.4809 9.98506 23.9872 11.9941 23.9872H12C18.611 23.9872 24 18.6084 24 11.9966C24 8.792 22.754 5.7779 20.4888 3.51434C18.2236 1.25089 15.2131 0 11.9999 0C5.38902 0 7.64354e-07 5.37881 7.64354e-07 11.9907C-0.000750477 14.0941 0.552276 16.1607 1.60356 17.983L0.120596 23.3871ZM8.19669 6.25446C8.41717 6.26039 8.66161 6.27236 8.89417 6.79061C9.04839 7.13562 9.30817 7.77076 9.5198 8.28815C9.68447 8.69075 9.81998 9.02206 9.85389 9.08987C9.93138 9.24472 9.97908 9.4234 9.87774 9.63185C9.86579 9.65644 9.85451 9.67995 9.84365 9.70258C9.76235 9.87196 9.7045 9.99249 9.5678 10.1501C9.51159 10.2149 9.45303 10.2859 9.39469 10.3567C9.29209 10.4811 9.19016 10.6048 9.10278 10.6922C8.94781 10.8469 8.78679 11.0139 8.96562 11.3236C9.14454 11.6333 9.77047 12.6519 10.6945 13.4739C11.6878 14.3618 12.5516 14.7359 12.9883 14.925C13.0731 14.9618 13.1417 14.9915 13.1921 15.0167C13.5022 15.1715 13.6869 15.1477 13.8658 14.9393C14.0447 14.7307 14.6407 14.0338 14.8494 13.7241C15.0521 13.4144 15.2607 13.462 15.5469 13.5692C15.833 13.6764 17.3591 14.4269 17.669 14.5818C17.7303 14.6124 17.7876 14.64 17.8407 14.6656C18.0564 14.7694 18.203 14.84 18.2652 14.9452C18.3427 15.0762 18.3427 15.6957 18.0863 16.4224C17.8241 17.1491 16.5603 17.8461 15.988 17.8997C15.9338 17.9048 15.8799 17.9113 15.8244 17.9181C15.2999 17.9818 14.6342 18.0626 12.2622 17.1253C9.33945 15.9714 7.41011 13.1086 7.02004 12.5298C6.98925 12.4841 6.96805 12.4527 6.95671 12.4374L6.95011 12.4285C6.77265 12.1901 5.68694 10.7317 5.68694 9.22692C5.68694 7.78723 6.39338 7.03769 6.7156 6.69581C6.73602 6.67415 6.7549 6.65412 6.77195 6.63565C7.05805 6.32595 7.39195 6.24853 7.60055 6.24853C7.80927 6.24853 8.01787 6.24853 8.19669 6.25446Z" fill="white"/>
</svg>
